<svg xmlns="http://www.w3.org/2000/svg" viewBox="0 0 600 375" width="600" height="375" role="img">
<defs>
<linearGradient id="sky" x1="0" y1="0" x2="0" y2="1"><stop offset="0" stop-color="#EFF7FC"/><stop offset="1" stop-color="#D6EAF6"/></linearGradient>
<linearGradient id="glass" x1="0" y1="0" x2="1" y2="1"><stop offset="0" stop-color="#ffffff" stop-opacity=".95"/><stop offset="1" stop-color="#8FD8EC" stop-opacity=".45"/></linearGradient>
<linearGradient id="deep" x1="0" y1="0" x2="1" y2="1"><stop offset="0" stop-color="#0F6E9E"/><stop offset="1" stop-color="#35B4D8"/></linearGradient>
</defs>
<rect width="600" height="375" fill="url(#sky)"/>
<rect x="170" y="80" width="260" height="34" rx="8" fill="#0A5478"/><rect x="182" y="124" width="236" height="15" rx="7" fill="#D6EAF6"/><rect x="182" y="148" width="236" height="15" rx="7" fill="#8FD8EC"/><rect x="182" y="172" width="236" height="15" rx="7" fill="#D6EAF6"/><rect x="182" y="196" width="236" height="15" rx="7" fill="#8FD8EC"/><rect x="182" y="220" width="236" height="15" rx="7" fill="#D6EAF6"/><rect x="182" y="244" width="236" height="15" rx="7" fill="#8FD8EC"/><rect x="164" y="80" width="14" height="220" rx="7" fill="#16242E"/><rect x="422" y="80" width="14" height="220" rx="7" fill="#16242E"/>
</svg>